<svg width="17" height="17" viewBox="0 0 17 17" fill="none" xmlns="http://www.w3.org/2000/svg">
<g clip-path="url(#clip0)">
<path d="M7.16211 1.83331H4.49544C3.75906 1.83331 3.16211 2.43027 3.16211 3.16665V5.83331C3.16211 6.56969 3.75906 7.16665 4.49544 7.16665H7.16211C7.89849 7.16665 8.49544 6.56969 8.49544 5.83331V3.16665C8.49544 2.43027 7.89849 1.83331 7.16211 1.83331Z" stroke="#E6704B" stroke-width="2" stroke-linecap="round" stroke-linejoin="round"/>
<path d="M7.16211 9.83331H4.49544C3.75906 9.83331 3.16211 10.4303 3.16211 11.1666V13.8333C3.16211 14.5697 3.75906 15.1666 4.49544 15.1666H7.16211C7.89849 15.1666 8.49544 14.5697 8.49544 13.8333V11.1666C8.49544 10.4303 7.89849 9.83331 7.16211 9.83331Z" stroke="#E6704B" stroke-width="2" stroke-linecap="round" stroke-linejoin="round"/>
<path d="M14.4961 11.1665H10.4961" stroke="#E6704B" stroke-width="2" stroke-linecap="round" stroke-linejoin="round"/>
<path d="M13.1628 13.8333H10.4961" stroke="#E6704B" stroke-width="2" stroke-linecap="round" stroke-linejoin="round"/>
<path d="M13.1628 5.83331H10.4961" stroke="#E6704B" stroke-width="2" stroke-linecap="round" stroke-linejoin="round"/>
<path d="M14.4961 3.16647H10.4961" stroke="#E6704B" stroke-width="2" stroke-linecap="round" stroke-linejoin="round"/>
</g>
<defs>
<clipPath id="clip0">
<rect width="16" height="16" fill="white" transform="translate(0.828125 0.5)"/>
</clipPath>
</defs>
</svg>
