<svg width="21" height="20" viewBox="0 0 21 20" fill="none" xmlns="http://www.w3.org/2000/svg">
<path fill-rule="evenodd" clip-rule="evenodd" d="M9.99526 2.65829C10.0528 2.47575 10.1671 2.31632 10.3214 2.20315C10.4758 2.08998 10.6622 2.02896 10.8536 2.02896C11.045 2.02896 11.2314 2.08998 11.3858 2.20315C11.5401 2.31632 11.6544 2.47575 11.7119 2.65829L13.2619 7.42495H18.2619C18.4602 7.41746 18.6554 7.47507 18.8178 7.58899C18.9802 7.7029 19.1009 7.86686 19.1614 8.0558C19.2218 8.24474 19.2188 8.44829 19.1527 8.63533C19.0865 8.82238 18.961 8.98263 18.7953 9.09162L14.7369 12.0333L16.2869 16.8083C16.3482 16.9902 16.3498 17.1869 16.2913 17.3697C16.2329 17.5526 16.1175 17.7119 15.9621 17.8245C15.8067 17.9371 15.6193 17.9971 15.4274 17.9957C15.2355 17.9943 15.049 17.9315 14.8953 17.8166L10.8286 14.8416L6.77026 17.7916C6.61651 17.9065 6.43006 17.9693 6.23813 17.9707C6.04619 17.9721 5.85883 17.9121 5.7034 17.7995C5.54797 17.6869 5.43261 17.5276 5.37418 17.3447C5.31574 17.1619 5.31729 16.9652 5.37859 16.7833L6.92859 12.0083L2.87026 9.06662C2.70449 8.95763 2.57897 8.79738 2.51286 8.61033C2.44675 8.42329 2.44369 8.21975 2.50415 8.0308C2.56461 7.84186 2.68527 7.6779 2.84769 7.56399C3.0101 7.45007 3.20535 7.39246 3.40359 7.39995H8.40359L9.99526 2.65829Z" stroke="#D1D1D1" stroke-width="1.5" stroke-linecap="round" stroke-linejoin="round"/>
</svg>
